<?xml version="1.0" standalone="no"?>
<!DOCTYPE svg PUBLIC "-//W3C//DTD SVG 20010904//EN"
 "http://www.w3.org/TR/2001/REC-SVG-20010904/DTD/svg10.dtd">
<svg version="1.0" xmlns="http://www.w3.org/2000/svg"
 width="512.000000pt" height="512.000000pt" viewBox="0 0 512.000000 512.000000"
 preserveAspectRatio="xMidYMid meet">
<metadata>
Created by potrace 1.11, written by Peter Selinger 2001-2013
</metadata>
<g transform="translate(0.000000,512.000000) scale(0.100000,-0.100000)"
fill="#000000" stroke="none">
<path d="M0 2560 l0 -2560 2560 0 2560 0 0 2560 0 2560 -2560 0 -2560 0 0
-2560z m1611 855 c87 -45 92 -179 9 -229 -81 -47 -180 14 -180 111 0 50 18 82
59 110 40 27 71 29 112 8z m869 -204 l0 -209 36 19 c80 40 182 33 257 -18 20
-14 53 -51 72 -81 52 -84 64 -160 67 -420 l3 -222 -105 0 -105 0 3 226 c3 193
2 232 -13 270 -31 83 -106 108 -176 61 l-34 -23 0 -267 0 -267 -100 0 -100 0
0 570 0 570 98 0 97 0 0 -209z m1510 3 c0 -193 1 -206 18 -199 9 5 42 15 72
23 111 30 216 -14 278 -118 48 -81 57 -121 56 -255 0 -100 -4 -130 -23 -178
-28 -72 -74 -133 -129 -172 -37 -25 -55 -30 -115 -33 -62 -3 -79 0 -119 22
l-48 25 0 -24 c0 -25 -1 -25 -92 -25 l-93 0 0 570 0 570 98 0 97 0 0 -206z
m-1968 -101 l-4 -73 76 0 76 0 0 -85 0 -85 -76 0 -76 0 4 -183 c3 -194 7 -210
52 -227 19 -7 61 0 99 15 15 6 17 -1 17 -83 l0 -90 -32 -11 c-145 -51 -278 -3
-314 112 -12 38 -17 109 -21 265 l-6 213 -38 -6 -39 -7 0 86 0 86 46 0 47 0
-6 75 -7 76 103 -3 102 -3 -3 -72z m-902 -83 c30 -11 66 -19 80 -20 25 0 115
21 153 36 16 6 18 -1 15 -87 l-3 -93 -30 -9 -30 -8 0 -82 c-1 -96 -20 -143
-87 -208 -30 -29 -59 -45 -112 -60 -76 -23 -96 -39 -96 -76 0 -36 44 -70 108
-84 141 -29 223 -86 238 -164 24 -131 -49 -255 -172 -291 -83 -24 -261 -16
-329 14 -100 46 -139 108 -133 213 3 58 8 74 34 106 17 20 48 47 70 58 l39 21
-22 33 c-30 44 -31 122 -4 168 l20 32 -34 25 c-18 14 -47 54 -64 87 -117 234
108 477 359 389z m540 -370 l0 -380 -100 0 -100 0 0 380 0 380 100 0 100 0 0
-380z m1571 179 c-4 -249 2 -300 38 -341 37 -42 95 -43 147 -3 l36 28 -4 258
-4 259 98 0 98 0 0 -380 0 -380 -95 0 c-95 0 -95 0 -95 25 0 14 -1 25 -2 25
-2 0 -25 -11 -52 -25 -88 -45 -214 -28 -273 36 -35 38 -72 129 -83 204 -5 39
-10 166 -10 283 l0 212 103 0 102 0 -4 -201z m-207 -575 c10 -4 16 -18 16 -39
0 -31 -2 -33 -32 -31 -30 1 -33 -2 -36 -31 -3 -31 -1 -33 27 -33 28 0 31 -3
31 -30 0 -27 -3 -30 -30 -30 l-30 0 0 -105 0 -105 -38 0 -38 0 4 105 c4 92 2
105 -12 105 -11 0 -16 9 -16 30 0 20 5 30 15 30 11 0 15 11 15 41 0 68 64 116
124 93z m217 -163 c49 -52 45 -166 -6 -217 -19 -19 -35 -24 -73 -24 -77 0
-112 44 -112 143 0 34 7 63 20 84 34 57 123 64 171 14z m193 33 c10 -4 16 -18
16 -41 0 -30 -3 -35 -19 -30 -42 11 -51 -8 -51 -108 l0 -95 -35 0 -35 0 0 135
0 136 45 -2 c24 -2 48 0 51 4 9 8 9 8 28 1z m480 -14 c4 -5 23 -2 41 5 42 18
83 7 109 -29 17 -23 22 -45 24 -132 l4 -104 -41 0 -40 0 -3 98 c-3 95 -3 97
-28 100 l-25 3 3 -101 4 -100 -41 0 -40 0 -3 98 c-3 96 -3 97 -28 97 -25 0
-25 -1 -26 -95 l-2 -95 -36 -3 -36 -3 0 136 0 135 50 -1 c28 -1 53 1 57 5 7 7
43 -2 57 -14z m-354 -85 c0 -79 3 -97 16 -102 9 -3 24 -2 33 4 13 9 16 28 15
102 l-1 91 39 0 38 0 0 -134 0 -135 -77 0 c-50 1 -86 6 -100 15 -30 19 -43 72
-43 172 l0 82 40 0 40 0 0 -95z"/>
<path d="M4027 2834 l-38 -25 3 -147 3 -146 34 -23 c91 -62 174 5 188 151 16
175 -76 268 -190 190z"/>
<path d="M957 2860 c-32 -25 -44 -92 -27 -145 22 -68 125 -85 170 -28 31 39
28 122 -6 162 -21 26 -33 31 -69 31 -27 0 -51 -7 -68 -20z"/>
<path d="M986 2190 c-43 -8 -86 -48 -86 -80 0 -35 42 -71 95 -81 114 -21 203
32 175 105 -18 48 -98 72 -184 56z"/>
<path d="M3141 2056 c-29 -34 -18 -122 15 -133 22 -7 44 28 44 68 0 67 -30
100 -59 65z"/>
</g>
</svg>
